<svg width="116" height="26" viewBox="0 0 116 26" fill="none" xmlns="http://www.w3.org/2000/svg">
<path d="M103.893 14.5745C103.893 11.107 106.097 8.38398 109.719 8.38398C110.557 8.35654 111.385 8.56579 112.111 8.98799C112.836 9.4102 113.43 10.0285 113.823 10.7726V8.68654H116V20.4347H113.823V18.3685C113.087 19.8216 111.417 20.7571 109.667 20.7571C105.947 20.7372 103.893 18.0381 103.893 14.5745ZM113.926 14.5745C113.926 12.3053 112.533 10.3705 109.968 10.3705C107.562 10.3705 106.07 12.1541 106.07 14.5745C106.07 16.995 107.562 18.7507 109.968 18.7507C112.533 18.7507 113.926 16.8398 113.926 14.5745V14.5745Z" fill="#154256"/>
<path d="M90.5449 8.68659H92.7456V10.8523C93.3789 9.35143 94.7999 8.38403 96.8264 8.38403C99.6881 8.38403 101.157 10.064 101.157 13.1971V20.4347H98.9796V14.1645C98.9796 11.541 98.1168 10.2949 96.0388 10.2949C93.8618 10.2949 92.7456 11.8476 92.7456 14.2163V20.4347H90.5449V8.68659Z" fill="#154256"/>
<path d="M76.3906 14.5431C76.3906 10.8247 78.6705 8.38037 82.1417 8.38037C85.4349 8.38037 87.6831 10.6735 87.6831 13.9061C87.6892 14.3406 87.6733 14.7751 87.6356 15.2079H78.5874C78.6388 17.4731 80.0321 18.7909 82.2605 18.7909C83.8041 18.7909 84.8689 18.1818 85.3517 17.0591H87.5524C87.1566 19.2248 84.9955 20.7257 82.2605 20.7257C78.6626 20.7376 76.3906 18.345 76.3906 14.5431ZM85.4942 13.5C85.4942 11.4378 84.2276 10.1639 82.1022 10.1639C79.9767 10.1639 78.6309 11.5374 78.5399 13.5H85.4942Z" fill="#154256"/>
<path d="M71.3398 2.6001H73.5445V20.4353H71.3398V2.6001Z" fill="#154256"/>
<path d="M57.207 14.5431C57.207 10.8247 59.4869 8.38037 62.9581 8.38037C66.2513 8.38037 68.4797 10.6735 68.4797 13.9061C68.4863 14.3407 68.4691 14.7752 68.4282 15.2079H59.3721C59.4196 17.4731 60.8129 18.7909 63.0452 18.7909C64.5889 18.7909 65.6536 18.1818 66.1325 17.0591H68.3372C67.9414 19.2248 65.7803 20.7257 63.0452 20.7257C59.4631 20.7376 57.207 18.345 57.207 14.5431ZM66.3107 13.5C66.3107 11.4378 65.0441 10.1639 62.9186 10.1639C60.7931 10.1639 59.4473 11.5374 59.3563 13.5H66.3107Z" fill="#154256"/>
<path d="M54.4714 13.1977V20.4353H52.2667V14.1651C52.2667 11.5416 51.4316 10.2955 49.3298 10.2955C47.1489 10.2955 46.0367 11.8481 46.0367 14.2169V20.4353H43.832V2.6001H46.0367V10.8529C46.67 9.35199 48.087 8.38459 50.1135 8.38459C53.003 8.38459 54.4714 10.0646 54.4714 13.1977Z" fill="#154256"/>
<path d="M8.49408 5.08365C9.9422 5.07909 11.3672 5.44908 12.6321 6.15809C13.8971 6.8671 14.9596 7.89132 15.7176 9.13239L20.0359 16.9313C20.606 17.8614 21.4079 18.6253 22.3621 19.1474C23.3164 19.6695 24.3898 19.9316 25.4758 19.9076C26.5618 19.8837 27.6228 19.5745 28.5533 19.0108C29.4839 18.4471 30.2517 17.6485 30.7807 16.6942C31.3097 15.7399 31.5813 14.6631 31.5688 13.5705C31.5562 12.478 31.2599 11.4078 30.7091 10.466C30.1584 9.52425 29.3724 8.74369 28.4291 8.20178C27.4859 7.65988 26.4181 7.37546 25.3318 7.37674C23.242 7.37674 21.6231 8.36007 20.0557 9.76538C20.0121 9.81316 19.8894 9.91268 19.838 9.9724L19.5609 10.2511L18.5714 8.45959C19.67 7.00928 21.2012 5.95052 22.9409 5.43816C24.6807 4.9258 26.5378 4.98669 28.2407 5.61195C29.9435 6.23721 31.4028 7.39403 32.4052 8.91324C33.4076 10.4325 33.9005 12.2344 33.8117 14.0555C33.723 15.8766 33.0573 17.6214 31.912 19.0348C30.7667 20.4481 29.2019 21.4559 27.4464 21.9106C25.6909 22.3654 23.8368 22.2434 22.1552 21.5623C20.4736 20.8813 19.0528 19.677 18.1004 18.1256L13.7821 10.3068C13.2076 9.38196 12.4031 8.62393 11.4481 8.10762C10.4931 7.59132 9.42069 7.33463 8.33683 7.36293C7.25298 7.39122 6.19524 7.70353 5.26815 8.26897C4.34107 8.8344 3.57675 9.6334 3.05074 10.587C2.52474 11.5405 2.25526 12.6157 2.26894 13.7061C2.28262 14.7965 2.579 15.8645 3.12877 16.8044C3.67854 17.7443 4.46266 18.5237 5.40364 19.0654C6.34462 19.6071 7.40986 19.8924 8.49408 19.8932C9.24662 19.8686 9.9929 19.7469 10.7146 19.5309L9.17487 18.878L10.0496 16.78L15.0052 18.8741L12.844 24.0495L10.7581 23.1657L11.3597 21.7086C10.4254 21.9718 9.46364 22.1241 8.49408 22.1624C6.24131 22.1624 4.08081 21.2623 2.48786 19.6601C0.894909 18.0579 0 15.8849 0 13.6191C0 11.3532 0.894909 9.18017 2.48786 7.57798C4.08081 5.97579 6.24131 5.07568 8.49408 5.07568V5.08365Z" fill="#154256"/>
</svg>
