<?xml version="1.0" encoding="utf-8"?>
<!-- Generator: Adobe Illustrator 18.1.1, SVG Export Plug-In . SVG Version: 6.00 Build 0)  -->
<svg version="1.1" id="Layer_1" xmlns="http://www.w3.org/2000/svg" xmlns:xlink="http://www.w3.org/1999/xlink" x="0px" y="0px"
	 viewBox="0 0 223 72" enable-background="new 0 0 223 72" xml:space="preserve">
<g>
	<rect fill="#801617" width="72" height="72"/>
	<path fill="#8D191C" d="M0,18.6v8.6c23-4.3,47.7-8.5,72-12.1V8.3C47.5,11.4,23.8,14.7,0,18.6z"/>
	<path fill="#A81F23" d="M72,0H0v18.6c23.8-3.8,47.5-7.2,72-10.2V0z"/>
</g>
<path fill="#636464" d="M87,13.6V0h11c1,0,1.8,0.2,2.2,0.6c0.5,0.4,0.7,1.1,0.7,2v3c0,0.9-0.2,1.6-0.7,2C99.8,8.1,99,8.3,98,8.3
	h-8.7v5.3H87z M97.1,1.8h-7.8v4.8h7.8c0.6,0,0.9-0.1,1.2-0.3c0.2-0.2,0.3-0.6,0.3-1.1V3.2c0-0.5-0.1-0.9-0.3-1.1
	C98.1,1.9,97.7,1.8,97.1,1.8z"/>
<path fill="#636464" d="M106.8,13.6V2.4h9c0.8,0,1.4,0.2,1.8,0.5c0.4,0.3,0.5,0.9,0.5,1.7v2.5c0,0.8-0.2,1.3-0.5,1.6
	c-0.4,0.3-1,0.5-1.8,0.5h-1.5l4.9,4.4h-2.8L112,9.3H109v4.4H106.8z M114.9,4.1h-6v3.6h6c0.5,0,0.8-0.1,1-0.2
	c0.2-0.2,0.2-0.5,0.2-0.9V5.2c0-0.4-0.1-0.7-0.3-0.9C115.7,4.2,115.4,4.1,114.9,4.1z"/>
<path fill="#636464" d="M123,13.6l6.5-11.2h1.9l6.6,11.2h-2.3l-1.5-2.6h-7.7l-1.4,2.6H123z M127.5,9.4h5.9l-3-5.3L127.5,9.4z"/>
<path fill="#636464" d="M142.8,13.6V2.4h2.1v4.8l7.1-4.8h2.9l-8.3,5.4l9.2,5.8h-3.5l-7.5-5v5H142.8z"/>
<path fill="#636464" d="M165.9,4.1v9.5h-2.1V4.1h-5.3V2.4h12.7v1.7H165.9z"/>
<path fill="#636464" d="M177.8,13.6h-2.1V2.5h2.1V13.6z"/>
<path fill="#636464" d="M186.4,13.6c-1.1,0-1.8-0.2-2.2-0.6c-0.4-0.4-0.6-1.1-0.6-2.1V8.8l2.1-0.4V12h6V2.4h2.1V11
	c0,1-0.2,1.7-0.6,2.1c-0.4,0.4-1.1,0.6-2.2,0.6H186.4z"/>
<path fill="#636464" d="M200.3,13.6V2.4h2.1v4.8l7.1-4.8h2.9l-8.3,5.4l9.2,5.8h-3.5l-7.5-5v5H200.3z"/>
<g>
	<path fill="#636464" d="M98.6,31h-9.5v9.9h9.5v-3.4l2.3,0.5v1.6c0,1.3-0.2,2.1-0.7,2.6c-0.4,0.4-1.3,0.7-2.5,0.7H90
		c-1.2,0-2.1-0.2-2.5-0.7c-0.4-0.5-0.7-1.3-0.7-2.5v-7.2c0-1.2,0.2-2.1,0.7-2.5c0.4-0.5,1.3-0.7,2.5-0.7h7.6c1.2,0,2.1,0.2,2.5,0.7
		c0.4,0.4,0.7,1.3,0.7,2.6v1.3l-2.3,0.4V31z"/>
	<path fill="#636464" d="M107.2,42.8V31.6h11.3v1.7h-9.2v2.9h5.5v1.7h-5.5v3.4h9.3v1.6H107.2z"/>
	<path fill="#636464" d="M125.7,33.9c0.1,0.3,0.1,0.7,0.1,1c0,0.3,0,0.7,0,1v7h-1.9V31.6h1.6l8.2,7.3c0.2,0.2,0.5,0.4,0.7,0.7
		c0.2,0.3,0.4,0.5,0.7,0.9c-0.1-0.3-0.1-0.7-0.1-1c0-0.3,0-0.7,0-1.1v-6.8h1.9v11.2h-1.4l-8.4-7.4c-0.3-0.3-0.5-0.5-0.8-0.8
		C126,34.4,125.9,34.1,125.7,33.9z"/>
	<path fill="#636464" d="M148.7,33.3v9.5h-2.1v-9.5h-5.3v-1.7h12.7v1.7H148.7z"/>
	<path fill="#636464" d="M158.6,42.8V31.6h9c0.8,0,1.4,0.2,1.8,0.5c0.4,0.3,0.5,0.9,0.5,1.7v2.5c0,0.8-0.2,1.3-0.5,1.6
		c-0.4,0.3-1,0.5-1.8,0.5h-1.5l4.9,4.4h-2.8l-4.5-4.4h-3.1v4.4H158.6z M166.6,33.3h-6v3.6h6c0.5,0,0.8-0.1,1-0.2
		c0.2-0.2,0.2-0.5,0.2-0.9v-1.3c0-0.4-0.1-0.7-0.3-0.9C167.4,33.3,167.1,33.3,166.6,33.3z"/>
	<path fill="#636464" d="M178.2,31.6v9.5h8.2v-9.5h2.1v8.6c0,1-0.2,1.7-0.6,2.1c-0.4,0.4-1.1,0.5-2.2,0.5h-6.9
		c-1.1,0-1.8-0.2-2.2-0.6c-0.4-0.4-0.6-1.1-0.6-2.1v-8.6H178.2z"/>
	<path fill="#636464" d="M196.7,33.7c0,0.2,0,0.4,0,0.7c0,0.5,0,0.8,0,0.9v7.6H195V31.6h1.7l5.6,7.3l5.1-7.3h2v11.2h-2v-7.6
		c0-0.3,0-0.5,0-0.8c0-0.3,0.1-0.5,0.1-0.7c-0.1,0.4-0.2,0.7-0.4,0.9c-0.1,0.3-0.2,0.5-0.4,0.6l-4.3,5.8H202l-4.5-5.7
		c-0.2-0.2-0.3-0.4-0.4-0.7C197,34.3,196.8,34,196.7,33.7z"/>
</g>
<g>
	<path fill="#636464" d="M87,72V58.4h2.3v11.7h10.3V72H87z"/>
	<path fill="#636464" d="M104.4,63.5c0-1,0.2-1.7,0.6-2.1c0.4-0.4,1.1-0.6,2.2-0.6h8.1c1.1,0,1.8,0.2,2.2,0.6
		c0.4,0.4,0.6,1.1,0.6,2.1v5.9c0,1-0.2,1.7-0.6,2.1c-0.4,0.4-1.1,0.6-2.2,0.6h-8.1c-1.1,0-1.8-0.2-2.2-0.5c-0.4-0.4-0.6-1.1-0.6-2.1
		V63.5z M106.5,70.3h9.4v-7.8h-9.4V70.3z"/>
	<path fill="#636464" d="M133.9,62.5h-7.8v7.8h7.8v-2.7L136,68v1.3c0,1-0.2,1.7-0.6,2.1c-0.4,0.4-1.1,0.6-2.2,0.6h-6.6
		c-1.1,0-1.8-0.2-2.2-0.5c-0.4-0.4-0.6-1.1-0.6-2.1v-5.9c0-1,0.2-1.7,0.6-2.1c0.4-0.4,1.1-0.5,2.2-0.5h6.6c1.1,0,1.8,0.2,2.2,0.6
		c0.4,0.4,0.6,1.1,0.6,2.1v1.1l-2.1,0.3V62.5z"/>
	<path fill="#636464" d="M141.8,72V60.8h2.1v4.5h8.9v-4.5h2.1V72h-2.1v-5h-8.9v5H141.8z"/>
	<path fill="#636464" d="M161.5,72V60.8h9c0.8,0,1.4,0.2,1.8,0.5c0.4,0.3,0.5,0.9,0.5,1.7v2.5c0,0.8-0.2,1.3-0.5,1.6
		c-0.4,0.3-1,0.5-1.8,0.5H169L174,72h-2.8l-4.5-4.4h-3.1V72H161.5z M169.6,62.4h-6v3.6h6c0.5,0,0.8-0.1,1-0.2
		c0.2-0.2,0.2-0.5,0.2-0.9v-1.3c0-0.4-0.1-0.7-0.3-0.9C170.3,62.5,170,62.4,169.6,62.4z"/>
	<path fill="#636464" d="M181.1,72H179V60.8h2.1V72z"/>
	<path fill="#636464" d="M197.4,62.5h-7.9v2.9h7.2c1.1,0,1.8,0.2,2.1,0.5c0.4,0.4,0.6,1.1,0.6,2.1v1.3c0,1-0.2,1.7-0.6,2.1
		c-0.4,0.4-1.1,0.5-2.2,0.5h-6.8c-1.1,0-1.8-0.2-2.2-0.5c-0.4-0.4-0.6-1.1-0.6-2.1V69l1.9-0.4v1.7h8.5v-3.1h-7.2
		c-1.1,0-1.8-0.2-2.2-0.5c-0.4-0.4-0.6-1.1-0.6-2.1v-1.1c0-1,0.2-1.7,0.6-2.1c0.4-0.4,1.1-0.6,2.2-0.6h6.2c1,0,1.8,0.2,2.2,0.5
		c0.4,0.4,0.6,1,0.6,1.9v0.3l-1.9,0.4V62.5z"/>
	<path fill="#636464" d="M211.1,62.5V72H209v-9.5h-5.3v-1.7h12.7v1.7H211.1z"/>
	<path fill="#636464" d="M222.9,72h-2.1V60.8h2.1V72z"/>
</g>
<polygon id="kruis_2_" fill="#FFFFFF" points="57.5,43.2 57.5,28.7 43.1,28.7 43.1,43.2 28.7,43.2 28.7,57.6 43.1,57.6 43.1,72 
	57.5,72 57.5,57.6 72,57.6 72,43.2 "/>
<g>
	<g>
		<path fill-rule="evenodd" clip-rule="evenodd" fill="#801617" d="M49.6,66.4c0-0.1,0-0.2,0-0.3c-0.3,0.3-0.6,0.6-0.9,0.8
			C49,66.7,49.4,66.5,49.6,66.4z"/>
	</g>
	<g>
		<path fill-rule="evenodd" clip-rule="evenodd" fill="#801617" d="M48.7,57.2c-0.1-0.6,0-1.3,0.7-2.2c0-0.8-0.1-1.4-0.1-1.9
			c-0.2,0.2-0.4,0.3-0.6,0.5c-1.1,1.1-1.6,2.6-1.3,3.8c0.6,2.6,3.1,2.4,4.1,4.4c0.3,0.8,0,1.7-0.6,2.7c0,0.3,0,0.6,0,0.9
			c1-1,1.5-2.1,1.5-2.5C52.7,59.2,49,59.6,48.7,57.2z"/>
	</g>
	<g>
		<path fill-rule="evenodd" clip-rule="evenodd" fill="#801617" d="M52.4,49.4c-0.2,0.7-0.6,1.2-1,1.7c0,0.7,0,1.3,0,1.9
			c1.5-1.2,3.5-2.8,2.6-5.9c-0.7-2.5-5.4-3.8-5.2-5.7c0.1-0.6,0.7-1.2,1.2-1.2c1.1,0,1.1,1.6,2.3,1.4c1.2-0.2,1-1.9,0.2-2.6
			c-2.1-1.8-5.5,0.1-4.9,2.9C48.1,45.1,53.6,45.7,52.4,49.4z M52,39.3c0.2,0,0.4,0.2,0.4,0.4c0,0.2-0.2,0.4-0.4,0.4
			s-0.4-0.2-0.4-0.4C51.6,39.5,51.7,39.3,52,39.3z"/>
	</g>
	<path fill-rule="evenodd" clip-rule="evenodd" fill="#801617" d="M50.5,37.8c0.3,0,0.6,0,0.9,0.1c0.2-1,0.8-1.7,0.9-2.7
		c-1.4,1-2.5,0.9-3.4,0.4c0.1,0.7,0.6,1.5,0.8,2.3C50,37.9,50.3,37.8,50.5,37.8z"/>
	<path fill-rule="evenodd" clip-rule="evenodd" fill="#801617" d="M51.3,41.8c-0.3-0.2-0.4-0.4-0.6-0.6c-0.3-0.4-0.4-0.5-0.7-0.5
		c0,0,0,0,0,0c0,0,0,0,0,0c0,0.6,0,1.3,0.1,2.1c0.3,0.3,0.8,0.6,1.2,0.9C51.2,43,51.2,42.4,51.3,41.8z"/>
	<g>
		<path fill-rule="evenodd" clip-rule="evenodd" fill="#801617" d="M50.5,65.3L50.5,65.3C50.5,65.3,50.5,65.3,50.5,65.3
			c0-0.1,0-0.1,0-0.2l0,0c0-1,0.1-2.5,0.2-3.8c-0.2-0.2-0.4-0.4-0.6-0.5c-0.1,1.5,0.1,6.6,0,8.9c0.8-1.8,0.4-2.7,0.4-3.9
			C50.5,65.6,50.5,65.5,50.5,65.3z"/>
		<path fill-rule="evenodd" clip-rule="evenodd" fill="#801617" d="M49.8,53.1C49.8,53.1,49.8,53.1,49.8,53.1c0,0.1,0,0.1,0,0.2
			c0,0,0,0,0,0.1c0,0,0,0.1,0,0.1c0,0,0,0.1,0,0.1c0,0,0,0.1,0,0.1c0,0,0,0.1,0,0.1c0,0,0,0.1,0,0.1c0,0,0,0.1,0,0.1
			c0,0,0,0.1,0,0.1c0,0.1,0,0.1,0,0.2c0,0,0,0,0,0.1c0,0.1,0,0.2,0,0.2l0,0c0,0.1,0,0.2,0,0.2l0,0c0,1.1,0.1,2.4,0.1,3.5
			c0.2,0.2,0.4,0.3,0.7,0.5c0,0,0.1,0.1,0.1,0.1c0-0.1,0-0.3,0-0.4c0.1-1.1,0.8-1.8,0.9-2.7c-0.3,0.3-0.9,0.6-0.9,0
			c0-0.5,0-1.1,0-1.9l0,0l0-0.8c0-1.9,0.1-4.4,0.2-6.8c-0.3-0.3-0.6-0.6-1-0.8c0,2-0.1,3.7-0.3,3.8c-0.2,0.1-0.7-0.4-1-0.8
			c0.1,1.6,0.8,2.5,1,4C49.8,52.8,49.8,53,49.8,53.1z"/>
	</g>
	<circle fill-rule="evenodd" clip-rule="evenodd" fill="#801617" cx="50.5" cy="33.4" r="1.4"/>
</g>
</svg>
