<?xml version="1.0" encoding="UTF-8" standalone="no"?>
<svg width="72px" height="72px" viewBox="0 0 72 72" version="1.1" xmlns="http://www.w3.org/2000/svg" xmlns:xlink="http://www.w3.org/1999/xlink" xmlns:sketch="http://www.bohemiancoding.com/sketch/ns">
    <!-- Generator: Sketch 3.5.1 (25234) - http://www.bohemiancoding.com/sketch -->
    <title>Group 2</title>
    <desc>Created with Sketch.</desc>
    <defs></defs>
    <g id="Page-1" stroke="none" stroke-width="1" fill="none" fill-rule="evenodd" sketch:type="MSPage">
        <g id="Group-2" sketch:type="MSLayerGroup">
            <g id="Group" sketch:type="MSShapeGroup">
                <rect id="Rectangle-path" fill="#801617" x="0" y="0" width="72" height="72"></rect>
                <path d="M0,18.6 L0,27.2 C23,22.9 47.7,18.7 72,15.1 L72,8.3 C47.5,11.4 23.8,14.7 0,18.6 L0,18.6 Z" id="Shape" fill="#8D191C"></path>
                <path d="M72,0 L0,0 L0,18.6 C23.8,14.8 47.5,11.4 72,8.4 L72,0 L72,0 Z" id="Shape" fill="#A81F23"></path>
            </g>
            <path d="M57.5,43.2 L57.5,28.7 L43.1,28.7 L43.1,43.2 L28.7,43.2 L28.7,57.6 L43.1,57.6 L43.1,72 L57.5,72 L57.5,57.6 L72,57.6 L72,43.2 L57.5,43.2 Z" id="kruis_2_" fill="#FFFFFF" sketch:type="MSShapeGroup"></path>
            <g id="Group" transform="translate(47.000000, 32.000000)" fill="#801617" sketch:type="MSShapeGroup">
                <path d="M2.6,34.4 L2.6,34.1 C2.3,34.4 2,34.7 1.7,34.9 C2,34.7 2.4,34.5 2.6,34.4 L2.6,34.4 Z" id="Shape"></path>
                <path d="M1.7,25.2 C1.6,24.6 1.7,23.9 2.4,23 C2.4,22.2 2.3,21.6 2.3,21.1 C2.1,21.3 1.9,21.4 1.7,21.6 C0.6,22.7 0.1,24.2 0.4,25.4 C1,28 3.5,27.8 4.5,29.8 C4.8,30.6 4.5,31.5 3.9,32.5 L3.9,33.4 C4.9,32.4 5.4,31.3 5.4,30.9 C5.7,27.2 2,27.6 1.7,25.2 L1.7,25.2 Z" id="Shape"></path>
                <path d="M5.4,17.4 C5.2,18.1 4.8,18.6 4.4,19.1 L4.4,21 C5.9,19.8 7.9,18.2 7,15.1 C6.3,12.6 1.6,11.3 1.8,9.4 C1.9,8.8 2.5,8.2 3,8.2 C4.1,8.2 4.1,9.8 5.3,9.6 C6.5,9.4 6.3,7.7 5.5,7 C3.4,5.2 2.66453526e-15,7.1 0.6,9.9 C1.1,13.1 6.6,13.7 5.4,17.4 L5.4,17.4 Z M5,7.3 C5.2,7.3 5.4,7.5 5.4,7.7 C5.4,7.9 5.2,8.1 5,8.1 C4.8,8.1 4.6,7.9 4.6,7.7 C4.6,7.5 4.7,7.3 5,7.3 L5,7.3 Z" id="Shape"></path>
                <path d="M3.5,5.8 C3.8,5.8 4.1,5.8 4.4,5.9 C4.6,4.9 5.2,4.2 5.3,3.2 C3.9,4.2 2.8,4.1 1.9,3.6 C2,4.3 2.5,5.1 2.7,5.9 C3,5.9 3.3,5.8 3.5,5.8 L3.5,5.8 Z" id="Shape"></path>
                <path d="M4.3,9.8 C4,9.6 3.9,9.4 3.7,9.2 C3.4,8.8 3.3,8.7 3,8.7 L3,8.7 L3,8.7 C3,9.3 3,10 3.1,10.8 C3.4,11.1 3.9,11.4 4.3,11.7 C4.2,11 4.2,10.4 4.3,9.8 L4.3,9.8 Z" id="Shape"></path>
                <g transform="translate(1.000000, 13.000000)" id="Shape">
                    <path d="M2.5,20.3 L2.5,20.3 L2.5,20.3 L2.5,20.1 L2.5,20.1 C2.5,19.1 2.6,17.6 2.7,16.3 C2.5,16.1 2.3,15.9 2.1,15.8 C2,17.3 2.2,22.4 2.1,24.7 C2.9,22.9 2.5,22 2.5,20.8 L2.5,20.3 L2.5,20.3 Z"></path>
                    <path d="M1.8,8.1 L1.8,8.1 L1.8,8.3 C1.8,8.3 1.8,8.3 1.8,8.4 L1.8,8.5 L1.8,8.6 L1.8,8.7 L1.8,8.8 L1.8,8.9 L1.8,9 L1.8,9.1 L1.8,9.3 C1.8,9.3 1.8,9.3 1.8,9.4 L1.8,9.6 L1.8,9.6 L1.8,9.8 L1.8,9.8 C1.8,10.9 1.9,12.2 1.9,13.3 C2.1,13.5 2.3,13.6 2.6,13.8 L2.7,13.9 L2.7,13.5 C2.8,12.4 3.5,11.7 3.6,10.8 C3.3,11.1 2.7,11.4 2.7,10.8 L2.7,8.9 L2.7,8.9 L2.7,8.1 C2.7,6.2 2.8,3.7 2.9,1.3 C2.6,1 2.3,0.7 1.9,0.5 C1.9,2.5 1.8,4.2 1.6,4.3 C1.4,4.4 0.9,3.9 0.6,3.5 C0.7,5.1 1.4,6 1.6,7.5 C1.8,7.8 1.8,8 1.8,8.1 L1.8,8.1 Z"></path>
                </g>
                <circle id="Oval" cx="3.5" cy="1.4" r="1.4"></circle>
            </g>
        </g>
    </g>
</svg>